<svg xmlns="http://www.w3.org/2000/svg" style="display: none;">
  <symbol id="home" viewBox="0 0 16 16">
    <path d="M1 2.828c.885-.37 2.154-.769 3.388-.893 1.33-.134 2.458.063 3.112.752v9.746c-.935-.53-2.12-.603-3.213-.493-1.18.12-2.37.461-3.287.811zm7.5-.141c.654-.689 1.782-.886 3.112-.752 1.234.124 2.503.523 3.388.893v9.923c-.918-.35-2.107-.692-3.287-.81-1.094-.111-2.278-.039-3.213.492zM8 1.783C7.015.936 5.587.81 4.287.94c-1.514.153-3.042.672-3.994 1.105A.5.5 0 0 0 0 2.5v11a.5.5 0 0 0 .707.455c.882-.4 2.303-.881 3.68-1.02 1.409-.142 2.59.087 3.223.877a.5.5 0 0 0 .78 0c.633-.79 1.814-1.019 3.222-.877 1.378.139 2.8.62 3.681 1.02A.5.5 0 0 0 16 13.5v-11a.5.5 0 0 0-.293-.455c-.952-.433-2.48-.952-3.994-1.105C10.413.809 8.985.936 8 1.783"/>
  </symbol>
  <symbol id="fichier" viewBox="0 0 16 16">
      <path d="M5.5 7a.5.5 0 0 0 0 1h5a.5.5 0 0 0 0-1h-5zM5 9.5a.5.5 0 0 1 .5-.5h5a.5.5 0 0 1 0 1h-5a.5.5 0 0 1-.5-.5zm0 2a.5.5 0 0 1 .5-.5h2a.5.5 0 0 1 0 1h-2a.5.5 0 0 1-.5-.5z"/>
      <path d="M9.5 0H4a2 2 0 0 0-2 2v12a2 2 0 0 0 2 2h8a2 2 0 0 0 2-2V4.5L9.5 0zm0 1v2A1.5 1.5 0 0 0 11 4.5h2V14a1 1 0 0 1-1 1H4a1 1 0 0 1-1-1V2a1 1 0 0 1 1-1h5.5z"/>
  </symbol>
  <symbol id="square" fill="currentColor" viewBox="0 0 16 16">
    <path d="M14 1a1 1 0 0 1 1 1v12a1 1 0 0 1-1 1H2a1 1 0 0 1-1-1V2a1 1 0 0 1 1-1zM2 0a2 2 0 0 0-2 2v12a2 2 0 0 0 2 2h12a2 2 0 0 0 2-2V2a2 2 0 0 0-2-2z"/>
  </symbol>
  <symbol id="check-square" fill="currentColor" viewBox="0 0 16 16">
    <path d="M14 1a1 1 0 0 1 1 1v12a1 1 0 0 1-1 1H2a1 1 0 0 1-1-1V2a1 1 0 0 1 1-1zM2 0a2 2 0 0 0-2 2v12a2 2 0 0 0 2 2h12a2 2 0 0 0 2-2V2a2 2 0 0 0-2-2z"/>
    <path d="M10.97 4.97a.75.75 0 0 1 1.071 1.05l-3.992 4.99a.75.75 0 0 1-1.08.02L4.324 8.384a.75.75 0 1 1 1.06-1.06l2.094 2.093 3.473-4.425z"/>
  </symbol>
  <symbol id="running" fill="currentColor" viewBox="0 0 16 16">
    <path d="M1.161 8a6.84 6.84 0 1 0 6.842-6.84.58.58 0 1 1 0-1.16 8 8 0 1 1-6.556 3.412l-.663-.577a.58.58 0 0 1 .227-.997l2.52-.69a.58.58 0 0 1 .728.633l-.332 2.592a.58.58 0 0 1-.956.364l-.643-.56A6.8 6.8 0 0 0 1.16 8z"/>
    <path d="M6.641 11.671V8.843h1.57l1.498 2.828h1.314L9.377 8.665c.897-.3 1.427-1.106 1.427-2.1 0-1.37-.943-2.246-2.456-2.246H5.5v7.352zm0-3.75V5.277h1.57c.881 0 1.416.499 1.416 1.32 0 .84-.504 1.324-1.386 1.324z"/>
  </symbol>
  <symbol id="burger-list" fill="currentColor" viewBox="0 0 16 16">
    <path fill-rule="evenodd" d="M2.5 12a.5.5 0 0 1 .5-.5h10a.5.5 0 0 1 0 1H3a.5.5 0 0 1-.5-.5m0-4a.5.5 0 0 1 .5-.5h10a.5.5 0 0 1 0 1H3a.5.5 0 0 1-.5-.5m0-4a.5.5 0 0 1 .5-.5h10a.5.5 0 0 1 0 1H3a.5.5 0 0 1-.5-.5"/>
  </symbol>
  <symbol id="caret-down-fill" fill="currentColor" viewBox="0 0 16 16">
    <path d="M7.247 11.14 2.451 5.658C1.885 5.013 2.345 4 3.204 4h9.592a1 1 0 0 1 .753 1.659l-4.796 5.48a1 1 0 0 1-1.506 0z"/>
  </symbol>
</svg>